<svg width="97" height="97" viewBox="0 0 97 97" fill="none" xmlns="http://www.w3.org/2000/svg">
<rect x="55.157" width="41.8431" height="76.0784" rx="4" fill="#008060"/>
<rect opacity="0.5" x="10" y="37.5879" width="41.8431" height="76.0784" rx="4" transform="rotate(-45 10 37.5879)" fill="#90DFD6"/>
<rect x="76.0784" y="55.1572" width="41.8431" height="76.0784" rx="4" transform="rotate(90 76.0784 55.1572)" fill="#90DFD6"/>
<path d="M33.5282 78.6879C33.9188 79.0785 34.5519 79.0785 34.9425 78.6879L41.3064 72.324C41.6969 71.9335 41.6969 71.3003 41.3064 70.9098C40.9159 70.5192 40.2827 70.5192 39.8922 70.9098L34.2354 76.5666L28.5785 70.9098C28.188 70.5192 27.5548 70.5192 27.1643 70.9098C26.7738 71.3003 26.7738 71.9335 27.1643 72.324L33.5282 78.6879ZM35.2354 77.9808C35.2354 55.4238 53.5214 37.1377 76.0785 37.1377V35.1377C52.4169 35.1377 33.2354 54.3192 33.2354 77.9808H35.2354Z" fill="#FBF7ED"/>
</svg>
