<svg width="176" height="49" viewBox="0 0 176 49" fill="none" xmlns="http://www.w3.org/2000/svg">
<path d="M60.8488 27.202C59.3357 26.3996 58.5581 25.7232 58.5581 24.7936C58.5581 23.6105 59.6383 22.8506 61.3251 22.8506C63.2887 22.8506 65.042 23.653 65.042 23.653L66.4248 19.5125C66.4248 19.5125 65.1532 18.5403 61.4106 18.5403C56.2023 18.5403 52.5927 21.4554 52.5927 25.5535C52.5927 27.8771 54.2781 29.6516 56.5267 30.9181C58.3424 31.9314 58.991 32.6502 58.991 33.7059C58.991 34.804 58.0832 35.6912 56.3978 35.6912C53.8859 35.6912 51.5138 34.4234 51.5138 34.4234L50.0442 38.5639C50.0442 38.5639 52.2358 40.0002 55.9228 40.0002C61.283 40.0002 65.1302 37.4233 65.1302 32.7762C65.1288 30.2855 63.1842 28.511 60.8488 27.202Z" fill="#FBF7ED"/>
<path d="M82.2029 18.4992C79.5662 18.4992 77.4913 19.7246 75.8928 21.5827L75.8059 21.5403L78.0966 9.83887H72.1311L66.3394 39.6208H72.3048L74.2928 29.4407C75.0704 25.5959 77.1019 23.2312 79.0044 23.2312C80.3438 23.2312 80.8635 24.1185 80.8635 25.3863C80.8635 26.1887 80.7767 27.1609 80.6043 27.9632L78.3571 39.6222H84.3226L86.6567 27.5826C86.9158 26.3147 87.0895 24.7948 87.0895 23.7803C87.0868 20.4846 85.3146 18.4992 82.2029 18.4992Z" fill="#FBF7ED"/>
<path d="M100.573 18.4992C93.397 18.4992 88.6433 24.836 88.6433 31.8902C88.6433 36.41 91.4958 40.0426 96.856 40.0426C103.902 40.0426 108.657 33.8756 108.657 26.6516C108.657 22.47 106.149 18.4992 100.573 18.4992ZM97.6336 35.5666C95.6021 35.5666 94.7377 33.8769 94.7377 31.7642C94.7377 28.4274 96.51 22.9779 99.7519 22.9779C101.87 22.9779 102.561 24.7524 102.561 26.4845C102.561 30.0746 100.79 35.5666 97.6336 35.5666Z" fill="#FBF7ED"/>
<path d="M123.915 18.4992C119.889 18.4992 117.603 21.9633 117.603 21.9633H117.518L117.864 18.8374H112.59C112.331 20.9501 111.855 24.1596 111.38 26.568L107.23 47.9006H113.196L114.838 39.2827H114.968C114.968 39.2827 116.192 40.0426 118.469 40.0426C125.471 40.0426 130.053 33.0308 130.053 25.9328C130.053 22.0058 128.28 18.4992 123.915 18.4992ZM118.209 35.6501C116.66 35.6501 115.744 34.8053 115.744 34.8053L116.739 29.3558C117.431 25.7232 119.376 23.3148 121.45 23.3148C123.266 23.3148 123.828 24.962 123.828 26.5256C123.828 30.2855 121.537 35.6501 118.209 35.6501Z" fill="#FBF7ED"/>
<path d="M138.568 10.1346C136.667 10.1346 135.154 11.6134 135.154 13.5139C135.154 15.246 136.277 16.429 137.963 16.429H138.05C139.909 16.429 141.507 15.2035 141.551 13.0497C141.551 11.3601 140.384 10.1346 138.568 10.1346Z" fill="#FBF7ED"/>
<path d="M130.226 39.6209H136.19L140.255 18.9647H134.246L130.226 39.6209Z" fill="#FBF7ED"/>
<path d="M155.426 18.9223H151.277L151.492 17.9501C151.838 15.9647 153.049 14.1902 155.037 14.1902C156.098 14.1902 156.938 14.486 156.938 14.486L158.105 9.92374C158.105 9.92374 157.068 9.41711 154.863 9.41711C152.745 9.41711 150.628 10.0086 149.028 11.3601C146.996 13.0497 146.045 15.4992 145.57 17.9501L145.398 18.9223H142.631L141.767 23.3161H144.533L141.378 39.6222H147.344L150.499 23.3161H154.605L155.426 18.9223Z" fill="#FBF7ED"/>
<path d="M169.777 18.9647C169.777 18.9647 166.048 28.1462 164.373 33.1581H164.286C164.172 31.5441 162.817 18.9647 162.817 18.9647H156.548L160.138 37.9312C160.225 38.353 160.181 38.6076 160.008 38.9034C159.315 40.2123 158.148 41.4802 156.766 42.4099C155.642 43.2123 154.388 43.7189 153.395 44.0571L155.037 49C156.247 48.7467 158.754 47.7746 160.872 45.8316C163.595 43.3396 166.102 39.4949 168.695 34.2562L176 18.9634H169.777V18.9647Z" fill="#FBF7ED"/>
<path d="M30.7976 47.6366L43.1655 44.6327C43.1655 44.6327 37.8405 9.44764 37.8066 9.20627C37.7727 8.96489 37.5569 8.83094 37.3778 8.81635C37.2 8.80176 33.7179 8.75004 33.7179 8.75004C33.7179 8.75004 31.5955 6.73549 30.7976 5.9729V47.6366Z" fill="#FBF7ED"/>
<path d="M29.4514 5.57104C29.4487 5.57237 28.9045 5.73682 27.9885 6.014C27.8352 5.5286 27.6099 4.9318 27.2883 4.33234C26.2515 2.39868 24.733 1.37615 22.8983 1.3735C22.8956 1.3735 22.8943 1.3735 22.8916 1.3735C22.764 1.3735 22.6378 1.38544 22.5102 1.39605C22.456 1.33239 22.4017 1.27005 22.3447 1.20905C21.5454 0.373518 20.5208 -0.0336364 19.2927 0.00217198C16.9234 0.0684838 14.5635 1.74087 12.6501 4.71164C11.304 6.80179 10.2794 9.42774 9.98902 11.4609C7.2682 12.2845 5.36566 12.86 5.32359 12.8733C3.95028 13.295 3.90686 13.3362 3.72773 14.6014C3.59339 15.5576 0 42.7136 0 42.7136L29.8124 47.752V5.51136C29.6658 5.52064 29.5342 5.54717 29.4514 5.57104ZM22.5672 7.65456C20.989 8.132 19.267 8.65322 17.5395 9.17575C18.0253 7.35748 18.9467 5.54717 20.0785 4.36019C20.4991 3.91855 21.0881 3.42652 21.7856 3.14535C22.441 4.4822 22.5835 6.37474 22.5672 7.65456ZM19.3389 1.54326C19.8953 1.53132 20.3634 1.65068 20.7638 1.90797C20.1232 2.2329 19.5044 2.69974 18.9236 3.30848C17.4187 4.8867 16.2652 7.33626 15.8052 9.69962C14.3708 10.1333 12.9677 10.559 11.6758 10.9489C12.4914 7.22884 15.6817 1.64671 19.3389 1.54326ZM14.7291 22.7352C14.8892 25.2139 21.5617 25.755 21.9362 31.5613C22.2307 36.1289 19.4569 39.2535 15.4605 39.5002C10.6635 39.7959 8.0227 37.0294 8.0227 37.0294L9.03911 32.8027C9.03911 32.8027 11.6975 34.7628 13.8253 34.6315C15.2149 34.5453 15.7116 33.4406 15.6614 32.6594C15.4524 29.4261 10.0189 29.617 9.67555 24.3041C9.3865 19.8334 12.3909 15.303 19.02 14.8945C21.5739 14.7367 22.8821 15.3746 22.8821 15.3746L21.3663 20.9169C21.3663 20.9169 19.6754 20.165 17.6711 20.2883C14.7304 20.47 14.6992 22.2816 14.7291 22.7352ZM24.1427 7.17844C24.1251 6.00605 23.9826 4.37478 23.4235 2.96499C25.2216 3.29787 26.1063 5.2859 26.4809 6.47156C25.7874 6.67978 24.9977 6.9185 24.1427 7.17844Z" fill="#FBF7ED"/>
</svg>
