<svg width="145" height="42" viewBox="0 0 145 42" fill="none" xmlns="http://www.w3.org/2000/svg">
<path d="M31.1475 7.75963C31.1195 7.55615 30.9417 7.44323 30.7942 7.43093C30.6477 7.41864 27.7789 7.37503 27.7789 7.37503C27.7789 7.37503 25.3797 5.04512 25.1427 4.80811C24.9057 4.57109 24.4428 4.64264 24.2628 4.69631C24.2606 4.69743 23.8123 4.83606 23.0576 5.06972C22.9313 4.66053 22.7457 4.15743 22.4807 3.6521C21.6266 2.02206 20.3755 1.16008 18.864 1.15784C18.8618 1.15784 18.8606 1.15784 18.8584 1.15784C18.7533 1.15784 18.6493 1.1679 18.5442 1.17685C18.4995 1.12318 18.4548 1.07064 18.4079 1.01921C17.7494 0.314871 16.9053 -0.028355 15.8935 0.00183095C13.9414 0.0577309 11.9972 1.46753 10.4209 3.97185C9.31181 5.73381 8.46772 7.94745 8.22847 9.66134C5.98688 10.3556 4.41945 10.8408 4.38479 10.852C3.25338 11.2075 3.2176 11.2422 3.07003 12.3088C2.96046 13.1148 0 36.007 0 36.007L24.8095 40.2979L35.5624 37.6247C35.5624 37.6247 31.1754 7.9631 31.1475 7.75963ZM21.8155 5.45431C21.2442 5.63096 20.5947 5.8322 19.8903 6.05021C19.8758 5.06189 19.7584 3.68676 19.2978 2.49832C20.7791 2.77894 21.5081 4.45482 21.8155 5.45431ZM18.5923 6.45269C17.2921 6.85517 15.8734 7.29454 14.4501 7.73503C14.8504 6.20225 15.6095 4.67618 16.5419 3.67558C16.8885 3.30328 17.3737 2.8885 17.9484 2.65149C18.4883 3.77843 18.6057 5.37382 18.5923 6.45269ZM15.9326 1.30095C16.391 1.29088 16.7767 1.3915 17.1065 1.6084C16.5788 1.88231 16.069 2.27584 15.5905 2.789C14.3506 4.11942 13.4003 6.18437 13.0213 8.17664C11.8396 8.54223 10.6836 8.9011 9.61926 9.2298C10.2912 6.09381 12.9196 1.38815 15.9326 1.30095Z" fill="#95BF47"/>
<path d="M30.7953 7.43224C30.6488 7.41994 27.78 7.37634 27.78 7.37634C27.78 7.37634 25.3808 5.04643 25.1438 4.80942C25.0554 4.72109 24.9358 4.67526 24.8106 4.65625L24.8117 40.2969L35.5635 37.6249C35.5635 37.6249 31.1765 7.96441 31.1485 7.76093C31.1206 7.55746 30.9417 7.44454 30.7953 7.43224Z" fill="#5E8E3E"/>
<path d="M18.8506 12.9603L17.6018 17.6325C17.6018 17.6325 16.2088 16.9985 14.5575 17.1025C12.1359 17.2557 12.1102 18.7829 12.1348 19.1663C12.2667 21.2559 17.7639 21.712 18.0725 26.6066C18.3151 30.457 16.0299 33.091 12.7374 33.299C8.78525 33.5483 6.60962 31.2173 6.60962 31.2173L7.447 27.6553C7.447 27.6553 9.63716 29.3077 11.3902 29.197C12.535 29.1244 12.9442 28.1931 12.9028 27.5346C12.7307 24.8089 8.2542 24.9699 7.97134 20.4912C7.73321 16.7224 10.2085 12.9033 15.6699 12.559C17.774 12.4237 18.8506 12.9603 18.8506 12.9603Z" fill="white"/>
<path d="M50.1311 22.9306C48.8845 22.2542 48.2439 21.684 48.2439 20.9003C48.2439 19.903 49.1338 19.2624 50.5235 19.2624C52.1412 19.2624 53.5857 19.9388 53.5857 19.9388L54.7249 16.4484C54.7249 16.4484 53.6774 15.6289 50.5939 15.6289C46.303 15.6289 43.3292 18.0863 43.3292 21.5409C43.3292 23.4996 44.7177 24.9955 46.5702 26.0632C48.0661 26.9173 48.6005 27.5233 48.6005 28.4132C48.6005 29.3389 47.8526 30.0869 46.464 30.0869C44.3946 30.0869 42.4403 29.0181 42.4403 29.0181L41.2296 32.5085C41.2296 32.5085 43.0351 33.7193 46.0727 33.7193C50.4888 33.7193 53.6583 31.547 53.6583 27.6295C53.6572 25.5299 52.0551 24.034 50.1311 22.9306Z" fill="white"/>
<path d="M67.7239 15.5945C65.5516 15.5945 63.8422 16.6275 62.5252 18.1938L62.4536 18.1581L64.3408 8.29395H59.4261L54.6545 33.3997H59.5692L61.2071 24.818C61.8477 21.5769 63.5213 19.5835 65.0888 19.5835C66.1922 19.5835 66.6204 20.3314 66.6204 21.4002C66.6204 22.0766 66.5489 22.8961 66.4069 23.5725L64.5555 33.4009H69.4702L71.3932 23.2517C71.6067 22.1828 71.7498 20.9016 71.7498 20.0464C71.7476 17.2681 70.2875 15.5945 67.7239 15.5945Z" fill="white"/>
<path d="M82.8582 15.5947C76.9463 15.5947 73.0299 20.9365 73.0299 26.8832C73.0299 30.6933 75.3799 33.7555 79.796 33.7555C85.6007 33.7555 89.5182 28.5568 89.5182 22.4671C89.5182 18.942 87.4521 15.5947 82.8582 15.5947ZM80.4367 29.9823C78.763 29.9823 78.0508 28.5579 78.0508 26.777C78.0508 23.9641 79.511 19.3702 82.1819 19.3702C83.9271 19.3702 84.4961 20.8661 84.4961 22.3262C84.4961 25.3526 83.0371 29.9823 80.4367 29.9823Z" fill="white"/>
<path d="M102.089 15.5947C98.7718 15.5947 96.8891 18.5149 96.8891 18.5149H96.8187L97.1038 15.8798H92.7592C92.5457 17.6608 92.1533 20.3663 91.762 22.3966L88.3431 40.3796H93.2579L94.6106 33.1149H94.718C94.718 33.1149 95.7264 33.7555 97.6024 33.7555C103.371 33.7555 107.146 27.8446 107.146 21.8611C107.146 18.5507 105.686 15.5947 102.089 15.5947ZM97.3878 30.0527C96.1121 30.0527 95.3575 29.3405 95.3575 29.3405L96.177 24.7467C96.7471 21.6845 98.3492 19.6542 100.059 19.6542C101.555 19.6542 102.017 21.0427 102.017 22.3609C102.017 25.5304 100.13 30.0527 97.3878 30.0527Z" fill="white"/>
<path d="M114.161 8.54297C112.595 8.54297 111.348 9.78954 111.348 11.3916C111.348 12.8517 112.274 13.849 113.662 13.849H113.734C115.266 13.849 116.583 12.816 116.618 11.0003C116.618 9.576 115.657 8.54297 114.161 8.54297Z" fill="white"/>
<path d="M107.289 33.4001H112.202L115.551 15.9873H110.6L107.289 33.4001Z" fill="white"/>
<path d="M128.05 15.9512H124.631L124.809 15.1317C125.094 13.458 126.091 11.9622 127.729 11.9622C128.603 11.9622 129.295 12.2115 129.295 12.2115L130.257 8.36555C130.257 8.36555 129.403 7.93848 127.586 7.93848C125.841 7.93848 124.097 8.4371 122.779 9.57635C121.105 11.0007 120.321 13.0656 119.93 15.1317L119.788 15.9512H117.508L116.796 19.6551H119.076L116.477 33.4009H121.391L123.991 19.6551H127.374L128.05 15.9512Z" fill="white"/>
<path d="M139.873 15.9874C139.873 15.9874 136.801 23.7274 135.421 27.9523H135.349C135.255 26.5917 134.139 15.9874 134.139 15.9874H128.975L131.932 31.976C132.003 32.3315 131.967 32.5461 131.824 32.7954C131.254 33.8989 130.293 34.9677 129.153 35.7514C128.228 36.4278 127.195 36.8549 126.376 37.14L127.729 41.3068C128.726 41.0932 130.791 40.2737 132.537 38.6359C134.78 36.5352 136.845 33.2941 138.982 28.878L145 15.9863H139.873V15.9874Z" fill="white"/>
</svg>
