<svg width="36" height="40" viewBox="0 0 36 40" fill="none" xmlns="http://www.w3.org/2000/svg">
<path d="M25.2127 39.903L35.3378 37.3868C35.3378 37.3868 30.9785 7.91359 30.9507 7.7114C30.9229 7.5092 30.7463 7.397 30.5996 7.38478C30.4541 7.37256 27.6034 7.32923 27.6034 7.32923C27.6034 7.32923 25.8659 5.64172 25.2127 5.00293V39.903V39.903Z" fill="#FBF7ED"/>
<path d="M24.1107 4.66664C24.1085 4.66776 23.663 4.80551 22.9131 5.0377C22.7875 4.63109 22.6031 4.13117 22.3398 3.62903C21.4911 2.00928 20.2479 1.15275 18.746 1.15053C18.7437 1.15053 18.7426 1.15053 18.7404 1.15053C18.636 1.15053 18.5327 1.16053 18.4282 1.16941C18.3838 1.11609 18.3394 1.06388 18.2927 1.01277C17.6384 0.312882 16.7996 -0.0281759 15.7942 0.00181939C13.8545 0.0573662 11.9226 1.45826 10.3562 3.94676C9.25411 5.69759 8.41535 7.89725 8.17761 9.60032C5.95018 10.2902 4.39265 10.7724 4.35821 10.7835C3.23394 11.1367 3.19839 11.1712 3.05174 12.231C2.94176 13.032 0 35.7796 0 35.7796L24.4062 40V4.61665C24.2862 4.62443 24.1784 4.64665 24.1107 4.66664ZM18.4749 6.41193C17.1829 6.81186 15.7731 7.24846 14.3589 7.68617C14.7566 6.16308 15.5109 4.64665 16.4374 3.65236C16.7818 3.28242 17.264 2.87026 17.835 2.63474C18.3716 3.75456 18.4882 5.33987 18.4749 6.41193ZM15.832 1.29273C16.2875 1.28273 16.6707 1.38271 16.9985 1.59824C16.4741 1.87042 15.9675 2.26147 15.492 2.77139C14.26 4.0934 13.3157 6.1453 12.9391 8.12499C11.7648 8.48827 10.6161 8.84488 9.5585 9.1715C10.2262 6.05532 12.838 1.37938 15.832 1.29273ZM12.0581 19.0444C12.1892 21.1207 17.6517 21.574 17.9583 26.4377C18.1994 30.2637 15.9286 32.8811 12.6569 33.0877C8.72975 33.3355 6.56786 31.0181 6.56786 31.0181L7.39995 27.4775C7.39995 27.4775 9.57628 29.1195 11.3182 29.0095C12.4558 28.9373 12.8624 28.0119 12.8213 27.3575C12.6502 24.6491 8.20205 24.809 7.92098 20.3586C7.68435 16.6137 10.144 12.8187 15.5709 12.4765C17.6617 12.3443 18.7326 12.8787 18.7326 12.8787L17.4917 17.5213C17.4917 17.5213 16.1075 16.8914 14.4666 16.9947C12.0592 17.1469 12.0337 18.6645 12.0581 19.0444ZM19.7647 6.0131C19.7502 5.03103 19.6336 3.66458 19.1759 2.48365C20.6479 2.7625 21.3722 4.42779 21.6788 5.42097C21.1111 5.59539 20.4646 5.79536 19.7647 6.0131Z" fill="#FBF7ED"/>
</svg>
